<?xml version="1.0" standalone="no"?>
<!DOCTYPE svg PUBLIC "-//W3C//DTD SVG 20010904//EN"
 "http://www.w3.org/TR/2001/REC-SVG-20010904/DTD/svg10.dtd">
<svg version="1.0" xmlns="http://www.w3.org/2000/svg"
 width="600.000000pt" height="600.000000pt" viewBox="0 0 600.000000 600.000000"
 preserveAspectRatio="xMidYMid meet">
<metadata>
Created by potrace 1.14, written by Peter Selinger 2001-2017
</metadata>
<g transform="translate(0.000000,600.000000) scale(0.100000,-0.100000)"
fill="#000000" stroke="none">
<path d="M0 5775 c0 -239 1 -242 47 -210 12 8 48 18 81 21 52 6 62 4 81 -15
25 -25 26 -34 5 -131 -22 -106 -31 -534 -14 -650 15 -95 24 -120 45 -120 15 0
20 23 30 132 3 36 14 108 25 159 11 51 27 136 35 189 37 232 70 295 169 324
30 9 85 16 123 16 37 0 111 5 163 10 114 10 360 13 413 4 24 -4 37 -2 37 5 0
6 7 11 15 11 8 0 12 -6 9 -15 -3 -8 1 -36 10 -62 34 -108 39 -164 27 -340 -6
-92 -14 -206 -17 -253 -5 -90 -17 -150 -40 -213 -8 -22 -14 -67 -12 -105 1
-41 -6 -94 -17 -135 -17 -59 -18 -70 -5 -90 47 -73 50 -88 50 -226 0 -85 -7
-176 -19 -250 -11 -64 -25 -177 -31 -251 -20 -238 -48 -310 -121 -310 -22 0
-47 4 -57 9 -9 5 -63 31 -120 56 l-103 47 -112 -7 c-172 -11 -248 -49 -299
-149 -11 -22 -39 -60 -62 -85 -111 -119 -107 -117 -192 -139 -44 -12 -95 -22
-112 -22 l-32 0 0 -559 0 -558 33 -8 c17 -3 46 -9 62 -11 17 -3 52 -9 78 -14
26 -6 80 -10 120 -10 40 0 121 -9 181 -20 60 -11 130 -20 155 -20 47 0 261
-27 426 -54 50 -8 135 -18 190 -21 243 -15 376 -40 438 -82 30 -21 37 -32 35
-52 -3 -26 -4 -26 -133 -38 -133 -13 -209 -27 -373 -70 -89 -23 -95 -23 -153
-8 -73 18 -131 19 -147 3 -7 -7 -12 -34 -12 -60 0 -43 -2 -48 -22 -49 -22 0
-22 -1 -3 -9 11 -5 16 -9 10 -10 -189 -21 -197 -26 -236 -120 l-25 -64 -100
-36 c-94 -34 -154 -65 -154 -79 0 -3 -25 -33 -56 -66 -62 -66 -75 -88 -95
-157 -7 -27 -18 -48 -23 -48 -5 0 -51 -44 -102 -98 l-93 -97 -1 -282 0 -283
3000 0 3000 0 0 306 0 305 -72 80 c-68 74 -74 79 -107 74 -26 -3 -48 3 -78 21
-24 14 -43 28 -43 32 0 7 -19 31 -110 144 -21 26 -48 44 -90 59 -33 12 -64 27
-70 34 -6 8 -12 271 -14 741 -3 401 -8 979 -12 1284 -12 992 -10 2591 3 2745
7 77 15 148 19 158 6 16 -145 17 -2710 17 l-2716 0 0 -225z m2260 -388 c0 -2
-12 -14 -27 -28 l-28 -24 24 28 c23 25 31 32 31 24z m638 -59 c-2 -7 5 -13 14
-13 10 0 40 -23 68 -50 39 -38 57 -49 78 -48 l27 2 -25 -8 c-14 -4 -41 -11
-60 -15 -31 -6 -32 -5 -16 7 18 13 15 16 -28 37 -34 16 -44 25 -35 31 17 10 4
16 -61 27 l-45 8 32 8 c18 4 35 12 38 17 9 13 15 11 13 -3z m-152 -45 c-23
-33 -26 -35 -26 -15 0 13 4 21 9 18 4 -3 13 6 20 21 6 14 14 23 17 20 3 -3 -6
-23 -20 -44z m-109 -11 c-9 -9 -20 -29 -26 -42 -9 -22 -10 -23 -10 -4 -1 19
32 64 46 64 3 0 -1 -8 -10 -18z m-1014 -26 c12 -3 38 -6 57 -6 27 0 43 -9 70
-38 39 -40 57 -77 87 -173 6 -21 -42 -70 -82 -84 -73 -25 -80 -37 -82 -136 -1
-50 -4 -98 -8 -106 -3 -9 5 -26 17 -39 57 -57 57 -58 51 -104 -10 -88 -55
-180 -88 -180 -7 0 -45 15 -86 34 -41 19 -85 36 -98 38 -13 1 -29 10 -34 20
-14 21 19 70 74 113 48 37 55 61 39 128 -14 55 -17 145 -8 212 3 22 8 76 12
120 7 80 31 155 48 155 6 0 7 19 4 43 -3 23 -3 35 0 26 3 -10 15 -20 27 -23z
m764 -28 c-3 -7 -5 -2 -5 12 0 14 2 19 5 13 2 -7 2 -19 0 -25z m-101 6 c18
-14 18 -14 -6 -3 -31 14 -36 19 -24 19 6 0 19 -7 30 -16z m852 -11 c-10 -2
-26 -2 -35 0 -10 3 -2 5 17 5 19 0 27 -2 18 -5z m89 1 c-3 -3 -12 -4 -19 -1
-8 3 -5 6 6 6 11 1 17 -2 13 -5z m46 -11 c-7 -2 -19 -2 -25 0 -7 3 -2 5 12 5
14 0 19 -2 13 -5z m-158 -67 c67 -75 119 -149 90 -126 -46 36 -54 44 -50 50 3
4 -5 16 -18 26 -12 10 -16 12 -9 4 6 -8 12 -20 12 -28 0 -7 17 -35 37 -60 50
-63 57 -71 44 -45 -7 13 -7 24 -2 28 12 7 61 -75 61 -101 0 -22 29 -67 30 -46
0 32 137 -38 215 -110 16 -16 37 -28 45 -28 21 0 90 -66 90 -85 0 -8 5 -15 10
-15 6 0 10 -5 10 -11 0 -6 16 -27 35 -47 19 -20 35 -41 35 -47 0 -14 72 -85
88 -85 7 0 11 -4 7 -9 -3 -6 4 -15 15 -21 11 -6 18 -15 15 -21 -4 -5 -2 -9 4
-9 28 0 158 -161 146 -180 -3 -6 1 -10 9 -10 10 0 13 -6 10 -15 -4 -8 -1 -22
6 -30 7 -9 14 -43 15 -76 1 -36 7 -64 15 -69 7 -4 9 -13 6 -19 -4 -6 -2 -11 4
-11 6 0 8 -4 5 -10 -3 -5 -1 -10 4 -10 6 0 14 -18 17 -40 4 -22 11 -43 15 -46
23 -14 7 -42 -31 -57 -22 -8 -37 -11 -34 -6 3 6 -3 13 -15 16 -11 3 -18 9 -15
14 3 5 15 4 27 -2 21 -10 21 -9 -2 10 -12 12 -27 18 -32 15 -5 -3 -9 4 -9 14
0 11 -7 22 -15 25 -8 4 -13 17 -12 32 2 24 -4 28 -73 52 -41 14 -77 29 -80 33
-8 10 -51 19 -44 9 3 -5 -2 -9 -11 -9 -9 0 -14 4 -11 9 4 5 -3 7 -13 4 -11 -3
-42 3 -70 12 -40 13 -68 15 -133 9 -46 -3 -92 -11 -103 -17 -17 -10 -84 -36
-92 -37 -1 0 0 7 3 15 4 8 11 12 17 8 6 -3 7 -1 3 5 -11 18 -34 14 -46 -8 -9
-17 -13 -18 -24 -8 -7 8 -15 20 -19 28 -5 13 -6 13 -6 0 -1 -9 4 -21 10 -27 9
-9 7 -12 -10 -10 -13 1 -21 8 -22 22 -1 19 -2 19 -6 1 -3 -11 -11 -25 -18 -33
-11 -11 -15 -8 -23 15 -6 15 -11 21 -11 15 -1 -7 -10 -13 -22 -13 -13 0 -18
-4 -13 -12 4 -7 3 -8 -5 -4 -19 12 -44 -14 -30 -30 9 -11 8 -14 -1 -14 -8 0
-11 -9 -8 -25 3 -14 2 -25 -2 -25 -3 0 -4 -14 -2 -31 3 -22 1 -30 -7 -25 -10
7 -12 1 -14 -51 0 -10 10 -39 22 -66 21 -43 22 -52 11 -91 -12 -42 -7 -137 9
-161 3 -5 6 -44 7 -85 1 -110 14 -190 30 -190 8 0 14 -5 14 -10 0 -6 6 -10 13
-8 6 1 22 -3 34 -10 19 -10 20 -9 16 8 -3 11 0 20 6 20 6 0 11 4 11 10 0 5 -7
7 -16 3 -13 -5 -15 -2 -9 18 10 32 15 36 24 20 5 -8 11 6 15 38 9 69 15 81 37
81 10 0 28 9 39 20 11 11 20 15 20 10 0 -7 6 -7 20 0 14 7 20 7 20 0 0 -5 8
-10 18 -10 10 0 19 7 19 15 0 12 -3 12 -15 2 -13 -10 -14 -9 -2 12 11 22 14
23 25 8 9 -12 14 -14 23 -5 9 9 12 9 12 -1 0 -10 3 -11 13 -2 8 6 16 8 19 6
11 -11 67 -19 158 -24 20 -1 22 -3 10 -11 -8 -5 -10 -10 -5 -10 6 -1 38 -3 72
-5 34 -2 76 -6 92 -10 22 -5 43 1 86 24 32 17 61 31 66 31 4 0 20 11 35 25 15
14 33 25 40 25 8 0 11 9 8 24 -3 16 2 26 12 30 11 4 15 14 12 31 -4 17 -1 25
9 25 8 0 11 5 8 10 -3 6 -16 10 -28 10 -16 0 -18 3 -9 12 19 19 14 30 -10 23
-23 -7 -23 -7 -3 9 20 16 20 16 0 31 -16 13 -17 17 -6 24 7 5 14 20 14 35 0
14 4 26 8 26 5 0 7 10 4 23 -5 18 -2 23 15 24 25 2 38 -27 35 -79 -2 -29 2
-38 14 -39 14 0 14 -1 1 -7 -8 -4 -16 -13 -18 -20 -1 -8 2 -11 9 -6 8 4 9 0 4
-15 -3 -12 -2 -21 3 -21 6 0 12 5 14 12 2 6 4 -7 3 -30 0 -23 -5 -45 -10 -49
-4 -4 -5 -3 -2 4 5 7 1 10 -10 9 -9 -2 -19 -9 -21 -17 -3 -12 -2 -12 6 0 8 11
11 10 15 -5 7 -24 28 -129 33 -163 14 -103 24 -380 13 -386 -4 -3 -5 -21 -2
-40 4 -25 2 -35 -8 -35 -10 0 -10 -3 -1 -12 15 -15 16 -32 1 -23 -6 4 -17 -1
-24 -11 -19 -26 -18 -34 3 -28 14 5 15 4 2 -5 -8 -6 -23 -8 -32 -5 -20 6 -58
-16 -58 -33 0 -7 -5 -13 -10 -13 -14 0 19 -34 48 -49 36 -19 19 -24 -22 -7
-32 13 -51 7 -26 -9 14 -9 12 -27 -2 -22 -7 2 -18 -3 -25 -12 -15 -19 -17 -34
-3 -26 6 3 10 2 10 -3 0 -6 -7 -12 -15 -16 -10 -4 -15 1 -16 17 0 21 -1 21
-10 -3 -6 -13 -15 -28 -21 -31 -9 -6 -8 -12 2 -23 11 -14 10 -16 -4 -10 -9 3
-16 14 -16 23 0 14 -2 14 -10 1 -5 -9 -5 -19 2 -27 8 -10 7 -12 -5 -8 -21 9
-28 -7 -17 -44 10 -35 -3 -42 -20 -11 -14 26 -30 26 -37 -1 -5 -18 -9 -17 -40
18 -20 21 -38 38 -42 38 -3 0 -5 4 -3 8 1 5 -2 6 -8 2 -6 -4 -17 -2 -24 4 -7
6 -24 11 -37 10 -13 0 -37 3 -54 8 -20 7 -36 6 -48 -1 -14 -9 -21 -6 -36 13
-16 21 -19 22 -22 8 -4 -15 -7 -15 -34 4 -28 19 -28 20 -5 14 19 -5 22 -4 10
4 -18 13 -53 14 -46 2 4 -5 -2 -8 -11 -6 -10 2 -21 4 -25 4 -5 1 -8 10 -8 21
0 11 -5 20 -11 20 -7 0 -8 12 -4 33 5 24 4 28 -4 17 -6 -8 -11 -10 -11 -4 0 6
6 17 14 23 11 9 15 9 19 -1 3 -10 9 -9 23 4 12 11 28 15 42 11 30 -8 28 5 -3
17 -14 5 -25 16 -24 22 3 29 -2 37 -18 31 -12 -5 -15 -2 -10 9 4 11 -10 31
-41 61 -26 25 -61 63 -79 83 -18 21 -36 35 -40 30 -4 -4 2 -16 14 -25 15 -13
20 -25 17 -42 -4 -17 -3 -20 4 -11 7 11 11 8 16 -12 3 -14 11 -26 16 -26 6 0
10 -14 10 -31 l0 -30 -32 22 c-18 13 -35 26 -38 29 -7 7 -68 5 -106 -4 -17 -4
-42 -18 -54 -32 -13 -13 -30 -24 -37 -24 -8 0 -16 -7 -19 -15 -4 -8 -13 -15
-21 -15 -8 0 -12 -4 -9 -9 3 -5 -10 -18 -28 -29 -41 -24 -88 -94 -80 -117 5
-12 -2 -15 -30 -15 -32 0 -36 -3 -36 -24 0 -14 -5 -28 -10 -31 -6 -4 -8 -11
-5 -16 4 -5 0 -9 -8 -9 -9 0 -12 -9 -9 -28 2 -17 -2 -35 -10 -43 -8 -8 -15
-34 -16 -59 -1 -28 1 -40 7 -32 7 11 9 11 14 -2 4 -9 2 -16 -3 -16 -5 0 -7 -7
-3 -16 4 -11 13 -14 32 -9 19 4 22 3 11 -5 -13 -8 -12 -10 4 -10 10 0 29 -11
41 -24 23 -25 26 -26 137 -13 15 2 25 -1 22 -5 -3 -4 0 -8 5 -8 6 0 11 7 11
15 0 8 4 15 10 15 5 0 6 -8 3 -17 -12 -30 -37 -53 -59 -53 -11 0 -29 -9 -39
-20 -15 -16 -15 -22 -5 -35 7 -8 9 -15 5 -15 -4 0 -2 -7 5 -15 7 -8 10 -22 6
-30 -3 -8 -1 -16 4 -16 6 -1 15 -3 20 -4 6 -1 17 -3 25 -4 26 -2 18 -50 -10
-63 -14 -6 -25 -16 -26 -22 0 -6 -3 -3 -7 6 -7 16 -10 16 -51 -2 -24 -11 -49
-20 -57 -20 -16 0 -17 -5 -5 -28 5 -10 6 -41 1 -72 l-8 -55 -1 45 c-1 25 -9
59 -17 75 -8 17 -12 22 -10 13 3 -9 8 -34 11 -55 5 -28 4 -34 -4 -23 -6 8 -11
25 -11 38 0 12 -5 22 -10 22 -7 0 -9 -15 -5 -37 4 -30 3 -34 -5 -18 -8 15 -9
8 -7 -32 2 -29 0 -50 -5 -47 -4 3 -9 15 -9 27 -1 17 -3 15 -9 -8 l-7 -30 -7
27 c-6 18 -13 25 -26 23 -10 -2 -21 3 -24 11 -9 24 -22 15 -21 -16 0 -18 3
-26 9 -20 14 14 29 12 20 -1 -11 -19 -13 -79 -3 -79 5 0 12 7 15 15 6 13 8 14
18 1 15 -19 56 -31 56 -15 0 8 5 7 17 -2 15 -13 29 -16 98 -22 17 -1 35 -5 41
-9 15 -10 24 0 18 20 -4 11 -1 10 8 -3 7 -12 23 -20 36 -19 13 1 29 -5 37 -12
9 -9 16 -10 20 -4 10 17 71 5 96 -19 15 -14 25 -17 30 -10 5 8 12 8 28 0 12
-7 19 -16 16 -21 -3 -5 6 -12 20 -16 35 -9 32 -26 -4 -21 -29 5 -29 5 -19 -32
5 -20 14 -40 19 -46 5 -5 9 -18 9 -30 0 -12 7 -30 15 -41 13 -18 14 -18 13 6
-3 49 2 100 10 100 4 0 7 -31 7 -69 0 -39 -4 -67 -9 -63 -12 7 1 -59 14 -72 7
-7 10 0 10 19 0 17 5 37 10 45 7 12 10 8 10 -15 0 -16 5 -37 10 -45 7 -11 10
-6 11 20 0 27 2 30 8 16 7 -18 8 -18 14 -3 18 47 40 -22 25 -78 -6 -25 12
-106 43 -183 11 -29 11 -42 1 -42 -5 0 -15 26 -22 58 -16 72 -22 83 -31 52 -7
-24 -7 -24 -8 -2 -1 13 -7 22 -16 22 -11 0 -14 7 -9 24 5 19 1 25 -21 30 -33
8 -30 12 -41 -44 -9 -41 -10 -42 -16 -18 -3 15 -1 25 3 22 5 -3 9 20 9 51 0
32 -4 54 -9 50 -6 -3 -15 3 -21 12 -9 15 -10 13 -5 -11 18 -82 18 -89 7 -82
-7 4 -12 12 -12 17 0 5 -7 26 -15 46 l-16 37 -15 -29 c-9 -17 -12 -40 -9 -57
4 -17 2 -28 -4 -28 -6 0 -7 -8 -4 -17 5 -14 8 -12 16 10 13 41 27 22 28 -41 1
-31 5 -70 9 -87 7 -29 10 -27 23 15 3 8 4 -16 3 -55 -2 -49 2 -75 12 -87 10
-12 11 -18 4 -18 -7 0 -12 -5 -12 -11 0 -5 4 -8 8 -5 4 2 14 -4 20 -15 12 -19
11 -19 -10 -8 -18 9 -21 9 -11 -1 6 -7 9 -19 6 -28 -4 -10 -2 -13 5 -8 9 5 10
-5 6 -37 -5 -34 -3 -45 9 -50 15 -6 39 15 43 37 1 6 3 16 4 21 1 6 2 17 1 25
-1 11 -3 12 -9 2 -5 -7 -9 13 -9 48 0 33 3 57 8 54 5 -3 9 -12 9 -20 0 -8 5
-12 10 -9 6 4 8 12 4 18 -3 7 1 4 9 -5 16 -20 32 -25 21 -6 -4 6 -3 8 4 4 5
-3 13 0 15 6 4 9 6 10 6 1 1 -15 -38 -43 -61 -43 -10 0 -18 -7 -18 -15 0 -12
8 -11 44 7 24 13 42 25 40 27 -2 2 1 12 6 21 7 13 6 20 -5 24 -8 3 -15 1 -15
-3 0 -5 -7 -12 -16 -15 -12 -5 -15 -2 -10 10 4 12 2 15 -9 10 -18 -7 -18 -8 0
45 9 24 15 58 13 76 -1 18 1 35 5 39 4 4 7 -2 7 -14 0 -34 11 -53 39 -63 17
-7 21 -13 13 -18 -7 -4 -12 -26 -11 -54 1 -25 6 -44 11 -41 5 3 7 11 5 17 -4
12 34 47 51 47 6 0 14 5 17 10 4 6 1 9 -6 8 -10 -2 -12 7 -10 32 4 44 8 50 29
44 16 -5 16 -5 0 6 -12 7 -18 23 -17 43 1 18 3 24 6 15 2 -10 9 -18 14 -18 6
0 7 -6 3 -12 -6 -10 -3 -9 8 0 10 8 14 21 11 30 -5 13 -3 14 6 6 10 -9 10 -17
1 -34 -6 -12 -8 -25 -4 -28 4 -4 9 -1 11 6 3 6 9 10 14 6 5 -3 9 1 9 9 0 8 7
20 15 27 16 13 11 31 -8 29 -28 -3 -33 3 -29 36 3 27 7 32 16 22 7 -7 15 -19
18 -27 4 -9 9 -3 13 18 6 24 10 30 16 20 7 -10 9 -8 10 7 1 11 1 23 0 28 0 4
4 7 10 7 6 0 9 5 7 12 -8 23 25 45 55 37 15 -4 28 -4 28 2 1 5 2 13 3 18 0 5
4 12 8 16 4 4 4 13 1 21 -6 16 18 19 33 4 7 -7 11 -6 11 4 0 8 -3 13 -7 11 -4
-2 -7 2 -7 9 0 8 6 12 14 9 7 -3 13 -21 13 -42 0 -20 3 -53 6 -74 6 -31 11
-37 33 -38 14 0 20 -3 14 -6 -19 -7 -16 -23 5 -23 12 0 9 -5 -11 -19 l-29 -18
26 -7 c14 -3 26 -11 26 -16 0 -14 -13 -13 -28 2 -9 9 -15 9 -24 0 -9 -9 -8
-12 5 -12 19 0 23 -15 5 -26 -6 -4 -8 -3 -4 4 4 6 -1 10 -13 9 -16 -1 -18 -4
-8 -16 10 -12 9 -14 -5 -8 -14 5 -20 -2 -29 -36 -7 -23 -16 -46 -20 -52 -4 -5
-10 -28 -14 -50 -4 -22 -14 -53 -22 -68 -8 -16 -12 -34 -10 -41 3 -7 -4 -23
-14 -37 -10 -13 -19 -29 -19 -36 0 -6 -4 -13 -10 -15 -5 -1 -11 -12 -13 -23
-10 -53 -21 -75 -39 -81 -15 -4 -19 -12 -15 -31 4 -20 1 -24 -14 -20 -16 4
-27 -13 -16 -26 1 -2 -6 -11 -15 -21 -10 -10 -18 -24 -18 -32 0 -18 -36 -55
-45 -46 -4 4 -5 2 -4 -3 4 -14 -11 -55 -20 -55 -4 0 -16 -7 -27 -16 -10 -8
-13 -13 -7 -9 9 4 11 1 7 -9 -3 -9 -11 -16 -18 -16 -6 0 -20 -11 -30 -25 -10
-14 -25 -25 -32 -25 -8 0 -14 -4 -14 -10 0 -5 -11 -10 -23 -10 -15 0 -28 -9
-35 -22 -6 -13 -11 -17 -11 -10 -1 10 -5 9 -17 -3 -14 -13 -19 -14 -25 -3 -7
10 -9 10 -9 1 0 -13 -57 -41 -87 -43 -68 -3 -163 -1 -188 5 -16 3 -66 12 -110
20 -109 20 -110 20 -200 45 -152 42 -239 91 -344 193 -100 97 -172 222 -232
402 l-33 100 -4 267 c-3 245 -5 268 -23 287 -10 11 -19 27 -19 35 0 9 -7 12
-20 9 -13 -4 -22 1 -26 13 -4 11 -16 29 -28 42 l-21 24 -6 -24 c-6 -21 -7 -20
-8 7 -1 33 -56 109 -72 100 -5 -4 -9 4 -9 17 0 13 -7 31 -15 41 -7 11 -11 25
-9 32 3 7 -4 18 -15 25 -12 6 -21 17 -21 26 0 8 -7 17 -15 20 -8 4 -15 12 -15
20 0 8 -4 14 -10 14 -5 0 -10 4 -10 10 0 5 -14 38 -30 72 -17 34 -30 70 -30
79 0 18 -7 37 -37 108 -24 53 -45 191 -38 246 24 199 24 221 10 305 -32 185
-38 213 -56 250 -10 21 -21 57 -25 81 -4 24 -19 61 -33 81 -23 34 -30 37 -61
34 -19 -3 -42 -7 -50 -11 -12 -4 -20 7 -33 42 -13 37 -17 77 -15 173 1 89 -2
132 -12 150 -9 17 -15 75 -18 175 l-4 151 33 79 c18 44 35 82 39 85 4 3 12 15
18 26 13 24 68 48 77 34 12 -20 11 -88 -2 -133 -8 -27 -11 -62 -8 -78 5 -24
12 -29 35 -29 27 0 29 -3 32 -47 3 -47 4 -48 37 -50 19 -1 38 -7 42 -15 6 -10
11 -9 23 7 9 11 16 24 16 29 0 13 31 46 43 46 5 0 6 -8 3 -17 -4 -11 4 -7 19
10 24 27 32 47 19 47 -4 0 -13 -8 -20 -17 -11 -15 -13 -16 -14 -2 0 8 7 24 15
35 8 10 15 29 15 42 0 13 4 21 9 18 5 -3 14 9 21 27 7 17 28 66 47 107 19 41
37 84 39 94 2 11 7 22 12 25 5 3 21 32 35 63 15 31 31 59 36 63 10 6 91 122
91 130 0 33 218 265 249 265 9 0 25 7 35 15 19 15 19 17 -17 106 -21 51 -36
93 -34 95 5 5 67 -128 67 -143 0 -5 11 -15 24 -21 23 -10 24 -10 16 16 -4 15
-9 34 -11 42 -2 8 -7 17 -11 20 -12 9 -40 82 -28 75 13 -8 50 -79 50 -97 1
-14 45 -68 55 -68 16 0 33 28 23 38 -6 6 -6 12 0 16 6 3 25 -11 42 -31 27 -32
31 -34 27 -15 -5 23 -5 23 14 6 23 -21 27 0 4 23 -9 8 -13 18 -9 22 4 3 9 0
11 -6 3 -9 10 -10 23 -3 14 7 23 6 34 -6 15 -14 16 -14 16 3 0 13 2 15 9 5 4
-7 28 -15 52 -17 24 -3 53 -6 64 -7 15 -2 19 2 16 17 -3 19 -2 19 15 3 29 -25
197 -14 215 14 4 6 4 27 2 47 -4 34 -4 35 11 16 8 -11 16 -36 16 -55 1 -28 3
-31 9 -15 5 11 6 26 3 34 -4 9 -1 12 7 7 7 -4 10 -13 8 -19 -2 -7 0 -20 5 -30
7 -14 13 -15 30 -6 15 8 19 8 14 0 -5 -7 1 -10 16 -8 13 2 29 -3 36 -12 10
-12 12 -12 6 -1 -7 13 -5 13 9 2 63 -52 1 71 -82 161 -32 35 -39 49 -36 74 3
23 -2 36 -22 54 -24 22 -26 22 -20 4 7 -19 7 -19 -8 -1 -14 19 -12 36 5 36 5
0 34 -29 65 -64z m-623 9 c-6 -34 -12 -32 -12 6 0 16 4 28 9 25 4 -3 6 -17 3
-31z m-72 11 c0 -3 -4 -8 -10 -11 -5 -3 -10 -1 -10 4 0 6 5 11 10 11 6 0 10
-2 10 -4z m-25 -49 c23 -20 36 -39 32 -47 -4 -11 -7 -9 -12 8 -4 12 -13 22
-19 22 -7 0 -22 11 -34 25 -31 36 -12 31 33 -8z m675 3 c0 -5 -2 -10 -4 -10
-3 0 -8 5 -11 10 -3 6 -1 10 4 10 6 0 11 -4 11 -10z m-32 -75 l1 -30 -13 25
c-7 14 -17 36 -21 49 -7 23 -7 24 12 5 11 -10 20 -32 21 -49z m-190 25 c-7
-10 -14 -17 -17 -15 -4 4 18 35 25 35 2 0 -1 -9 -8 -20z m-358 -69 c0 7 16 -2
35 -21 19 -19 35 -39 35 -44 0 -6 -13 4 -29 23 -15 19 -33 31 -38 28 -6 -4
-17 1 -24 11 -13 15 -12 16 4 3 14 -11 17 -11 17 0z m-803 -263 c-3 -8 -6 -5
-6 6 -1 11 2 17 5 13 3 -3 4 -12 1 -19z m113 -659 c0 -11 -4 -17 -10 -14 -5 3
-10 15 -10 26 0 11 5 17 10 14 6 -3 10 -15 10 -26z m1876 -74 c17 -13 16 -14
-13 -4 -34 11 -42 19 -20 19 7 0 22 -7 33 -15z m304 -85 c-12 -8 -12 -10 -1
-10 8 0 12 -3 8 -6 -9 -9 -28 6 -22 17 4 5 12 9 18 9 7 0 6 -4 -3 -10z m105
-190 c3 -6 -4 -10 -17 -10 -18 0 -20 2 -8 10 19 12 18 12 25 0z m-5 -35 c0 -8
-2 -15 -4 -15 -2 0 -6 7 -10 15 -3 8 -1 15 4 15 6 0 10 -7 10 -15z m308 -110
c-3 -3 -9 2 -12 12 -6 14 -5 15 5 6 7 -7 10 -15 7 -18z m-928 -61 c0 -9 10
-24 23 -35 31 -26 3 -24 -34 2 -30 21 -38 44 -16 52 17 6 27 -1 27 -19z m271
-38 c5 3 9 1 9 -3 0 -5 -8 -13 -18 -20 -17 -10 -18 -8 -14 15 3 15 7 21 10 14
2 -6 8 -10 13 -6z m598 -173 c0 -25 -1 -25 -8 -8 -5 11 -7 23 -4 28 8 14 13 7
12 -20z m12 -83 c5 0 9 -7 9 -16 0 -8 -4 -12 -10 -9 -5 3 -10 -1 -10 -9 0 -9
-4 -16 -10 -16 -12 0 -14 73 -2 84 4 4 8 -2 10 -13 2 -12 8 -21 13 -21z
m-3339 -70 c24 -29 33 -85 19 -118 -31 -74 -160 -89 -211 -24 -27 33 -21 69
17 113 53 61 138 74 175 29z m-405 -510 c81 -45 102 -80 84 -142 -7 -24 -15
-49 -17 -55 -2 -7 -13 -13 -24 -13 -11 0 -23 -7 -26 -15 -4 -8 -12 -15 -18
-15 -7 0 -19 -18 -26 -40 -7 -22 -19 -40 -25 -40 -7 0 -20 -18 -30 -40 -13
-28 -26 -42 -44 -46 -39 -8 -182 -54 -216 -69 -61 -28 -103 -34 -116 -19 -33
40 -17 219 28 310 22 45 61 90 142 164 34 31 83 62 109 69 38 11 106 -8 179
-49z m3778 -137 c-7 -38 -39 -46 -48 -12 -4 16 -3 18 8 9 14 -11 24 12 25 60
l1 25 10 -25 c6 -14 8 -40 4 -57z m-1176 -56 c1 -5 -3 -5 -9 -2 -5 3 -10 16
-9 28 0 21 1 21 9 2 5 -11 9 -24 9 -28z m-79 24 c0 -5 -9 -7 -20 -4 -11 3 -20
7 -20 9 0 2 9 4 20 4 11 0 20 -4 20 -9z m-229 -45 c-7 -8 -9 -20 -5 -27 4 -7
2 -10 -6 -7 -18 6 -21 38 -4 38 8 0 14 5 14 12 0 6 3 8 6 5 4 -4 1 -13 -5 -21z
m1053 -12 c9 -3 14 -10 11 -15 -7 -10 -35 0 -35 12 0 11 3 11 24 3z m120 -70
c3 -8 2 -12 -4 -9 -6 3 -10 10 -10 16 0 14 7 11 14 -7z m-649 -265 c-3 -5 1
-6 9 -3 9 3 16 1 16 -5 0 -6 -6 -11 -12 -11 -9 0 -8 -4 2 -10 13 -8 12 -10 -2
-10 -10 0 -18 -6 -19 -12 0 -10 -2 -10 -6 0 -2 6 -11 12 -19 12 -8 0 -14 -6
-14 -12 0 -9 -4 -8 -10 2 -8 12 -10 12 -10 1 0 -8 -3 -11 -7 -8 -3 4 -12 -1
-19 -11 -10 -12 -13 -13 -14 -3 0 9 -8 11 -24 7 -14 -3 -28 -1 -31 5 -10 14
23 48 43 44 9 -1 25 4 35 13 9 8 17 13 17 9 0 -3 12 -2 28 2 30 9 45 5 37 -10z
m40 11 c3 -6 -1 -7 -9 -4 -18 7 -21 14 -7 14 6 0 13 -4 16 -10z m-245 -40 c0
-5 -5 -10 -11 -10 -5 0 -7 5 -4 10 3 6 8 10 11 10 2 0 4 -4 4 -10z m710 -72
c0 -5 -7 -3 -15 6 -8 8 -15 18 -15 22 0 3 7 1 15 -6 8 -7 15 -17 15 -22z
m-876 3 c4 -5 -3 -7 -14 -4 -23 6 -26 13 -6 13 8 0 17 -4 20 -9z m116 -32 c0
-5 -4 -9 -10 -9 -5 0 -10 7 -10 16 0 8 5 12 10 9 6 -3 10 -10 10 -16z m-123
-46 c-3 -10 -5 -2 -5 17 0 19 2 27 5 18 2 -10 2 -26 0 -35z m221 -23 l0 -25
-8 25 c-4 14 -8 36 -8 50 l0 25 8 -25 c4 -14 8 -36 8 -50z m-78 -40 l-11 -25
6 25 c2 14 6 41 7 60 l1 35 4 -35 c2 -20 -1 -47 -7 -60z m59 37 c0 -21 -1 -21
-9 -2 -12 28 -12 37 0 30 6 -3 10 -16 9 -28z m-322 -69 c-3 -8 -6 -5 -6 6 -1
11 2 17 5 13 3 -3 4 -12 1 -19z m86 -63 c-3 -9 -8 -14 -10 -11 -3 3 -2 9 2 15
9 16 15 13 8 -4z m672 -115 c3 -5 1 -10 -4 -10 -6 0 -11 5 -11 10 0 6 2 10 4
10 3 0 8 -4 11 -10z m-310 -50 c10 -11 14 -20 9 -20 -5 0 -15 9 -22 20 -7 11
-11 20 -9 20 2 0 12 -9 22 -20z m115 -59 c7 -17 9 -39 5 -48 -6 -15 -9 -12
-17 15 -5 18 -19 37 -31 43 -13 6 -23 19 -24 30 -2 18 0 18 26 4 16 -8 34 -28
41 -44z m489 -17 c2 -2 -13 -2 -32 -1 -27 2 -33 5 -25 14 9 11 36 5 57 -13z
m-411 -49 c-3 -3 -9 2 -12 12 -6 14 -5 15 5 6 7 -7 10 -15 7 -18z m406 13 c-3
-4 -9 -8 -15 -8 -5 0 -9 4 -9 8 0 5 7 9 15 9 8 0 12 -4 9 -9z m-434 -48 c6
-11 7 -20 2 -20 -6 0 -12 9 -15 20 -3 11 -3 20 -1 20 2 0 8 -9 14 -20z m428
-50 c4 0 8 -11 8 -25 1 -14 -2 -25 -6 -25 -9 0 -21 53 -18 89 1 22 2 21 5 -6
2 -18 7 -33 11 -33z m29 28 c-3 -8 -6 -5 -6 6 -1 11 2 17 5 13 3 -3 4 -12 1
-19z m-388 -98 c1 -62 -16 -75 -20 -16 -2 24 -1 42 4 39 4 -2 7 3 7 11 0 9 2
16 4 16 2 0 4 -22 5 -50z m-52 -37 c-3 -10 -5 -4 -5 12 0 17 2 24 5 18 2 -7 2
-21 0 -30z m-179 -58 c-3 -3 -9 2 -12 12 -6 14 -5 15 5 6 7 -7 10 -15 7 -18z
m595 -70 c-3 -9 -8 -14 -10 -11 -3 3 -2 9 2 15 9 16 15 13 8 -4z m-359 -73
c-4 -9 -7 -19 -7 -22 1 -3 -6 -11 -14 -19 -9 -8 -14 -10 -12 -5 2 5 11 26 19
47 8 21 16 33 18 27 2 -6 0 -18 -4 -28z m339 -7 c-3 -9 -8 -14 -10 -11 -3 3
-2 9 2 15 9 16 15 13 8 -4z m-523 -65 c0 -5 -2 -10 -4 -10 -3 0 -8 5 -11 10
-3 6 -1 10 4 10 6 0 11 -4 11 -10z m20 -141 c0 -6 -4 -7 -10 -4 -5 3 -10 11
-10 16 0 6 5 7 10 4 6 -3 10 -11 10 -16z"/>
<path d="M2410 4830 c0 -5 5 -10 11 -10 5 0 7 5 4 10 -3 6 -8 10 -11 10 -2 0
-4 -4 -4 -10z"/>
<path d="M3415 4000 c-3 -6 1 -7 9 -4 18 7 21 14 7 14 -6 0 -13 -4 -16 -10z"/>
<path d="M2498 3953 c7 -3 16 -2 19 1 4 3 -2 6 -13 5 -11 0 -14 -3 -6 -6z"/>
<path d="M2475 3930 c-3 -5 -19 -10 -36 -10 -16 0 -29 -5 -29 -10 0 -7 -15 -9
-37 -5 -21 3 -32 2 -25 -1 15 -7 -17 -26 -62 -38 -23 -6 -27 -4 -23 8 6 15 0
19 -38 19 -95 0 -145 -5 -145 -13 0 -5 8 -7 18 -4 15 5 15 4 -1 -6 -10 -6 -25
-9 -33 -6 -8 3 -23 -3 -34 -14 -25 -25 -25 -34 -2 -26 13 5 13 3 -3 -9 -35
-25 -45 -36 -45 -45 0 -13 37 -13 45 0 3 6 10 10 16 10 5 0 9 -4 9 -10 0 -5
-7 -10 -15 -10 -8 0 -15 -3 -15 -7 0 -9 0 -9 158 -13 98 -3 114 -5 123 -22 5
-10 15 -16 20 -12 6 3 19 -2 30 -12 22 -20 24 -30 7 -32 -7 -1 -37 -8 -66 -16
-96 -27 -166 -85 -187 -154 -6 -21 -4 -23 15 -17 19 6 21 4 15 -14 l-6 -21 38
22 c21 12 44 30 51 40 7 9 19 15 27 12 8 -4 15 -1 15 5 0 21 30 11 39 -12 15
-39 70 -79 100 -73 14 3 46 7 71 10 38 5 42 4 23 -6 -13 -6 -23 -17 -23 -25 0
-17 10 -17 37 2 30 21 37 3 8 -19 -20 -15 -22 -22 -14 -37 8 -16 17 -18 52
-13 23 4 54 13 68 20 15 7 30 10 34 6 5 -4 6 -2 2 3 -3 6 8 17 24 24 16 7 32
23 35 36 3 13 12 26 20 29 8 3 14 10 14 16 0 6 9 21 21 33 26 27 22 86 -10
147 l-22 42 31 34 c16 19 31 38 31 42 6 38 5 102 -2 102 -5 0 -6 7 -3 15 4 8
1 15 -5 15 -6 0 -11 7 -11 16 0 15 -2 15 -25 0 -30 -20 -32 -20 -38 2 -4 16
-5 16 -6 -1 0 -10 -5 -15 -11 -12 -5 3 -10 2 -10 -4 0 -5 -9 -8 -20 -6 -12 2
-20 -2 -20 -10 0 -19 -28 -8 -35 14 -4 12 -15 15 -49 13 -24 -2 -53 1 -64 7
-14 7 -23 8 -27 1z m-300 -60 c3 -6 -4 -10 -17 -10 -18 0 -20 2 -8 10 19 12
18 12 25 0z m45 0 c0 -5 -4 -10 -9 -10 -6 0 -13 5 -16 10 -3 6 1 10 9 10 9 0
16 -4 16 -10z m402 -8 c-7 -2 -9 -9 -5 -15 3 -7 2 -8 -2 -4 -16 14 -14 36 3
29 10 -4 12 -7 4 -10z m-417 -22 c-27 -12 -43 -12 -25 0 8 5 22 9 30 9 10 0 8
-3 -5 -9z m-35 -61 c0 -5 5 -7 10 -4 6 3 10 2 10 -3 0 -11 -61 -22 -105 -20
-22 1 -17 3 15 7 28 4 44 11 43 19 -2 6 4 12 12 12 8 0 15 -5 15 -11z m150
-167 c-19 -9 -57 -27 -85 -39 -27 -13 -60 -38 -72 -56 -26 -35 -31 -24 -9 18
24 47 109 93 171 94 l30 0 -35 -17z m-4 -69 c-10 -10 -19 5 -10 18 6 11 8 11
12 0 2 -7 1 -15 -2 -18z m-26 7 c0 -5 -5 -10 -11 -10 -5 0 -7 5 -4 10 3 6 8
10 11 10 2 0 4 -4 4 -10z m290 -17 c0 -27 -14 -43 -29 -34 -15 10 -15 17 1 36
18 19 28 19 28 -2z"/>
<path d="M2307 3923 c-10 -10 -8 -23 4 -23 5 0 8 4 5 9 -4 5 0 12 6 14 7 3 8
6 2 6 -6 1 -14 -2 -17 -6z"/>
<path d="M2997 3879 c4 -13 8 -18 11 -10 2 7 -1 18 -6 23 -8 8 -9 4 -5 -13z"/>
<path d="M1780 3862 c0 -10 -9 -25 -20 -35 -11 -9 -20 -28 -20 -42 0 -14 -4
-25 -10 -25 -11 0 -1 -32 14 -42 8 -6 7 -10 -1 -16 -9 -5 -8 -21 2 -64 7 -31
9 -58 5 -60 -9 -4 11 -123 24 -135 5 -4 5 6 1 25 -4 18 -2 55 5 82 8 34 8 54
1 68 -6 12 -7 22 0 29 13 13 21 233 8 233 -5 0 -9 -8 -9 -18z"/>
<path d="M1990 3740 c-9 -6 -10 -10 -3 -10 6 0 15 5 18 10 8 12 4 12 -15 0z"/>
<path d="M3533 3370 c2 -8 12 -16 23 -17 13 -2 15 -1 4 4 -8 3 -19 11 -23 17
-6 7 -7 6 -4 -4z"/>
<path d="M3485 3340 c3 -5 11 -10 16 -10 6 0 7 5 4 10 -3 6 -11 10 -16 10 -6
0 -7 -4 -4 -10z"/>
<path d="M3525 3330 c3 -5 15 -10 26 -10 11 0 17 5 14 10 -3 6 -15 10 -26 10
-11 0 -17 -4 -14 -10z"/>
<path d="M4075 2819 c-11 -17 1 -21 15 -4 8 9 8 15 2 15 -6 0 -14 -5 -17 -11z"/>
<path d="M2733 2714 c-34 -17 -39 -29 -24 -53 8 -12 19 -10 68 12 65 29 75 42
41 51 -35 9 -50 7 -85 -10z"/>
<path d="M2866 2612 c-3 -4 4 -9 15 -9 23 -2 25 3 4 10 -8 4 -16 3 -19 -1z"/>
<path d="M2803 2496 c3 -7 1 -19 -5 -27 -8 -11 -9 -10 -4 4 3 9 3 17 -1 17 -8
0 -78 -64 -80 -73 -5 -23 -10 -26 -30 -21 l-23 6 25 20 c14 11 25 24 25 30 0
6 -8 4 -18 -5 -21 -19 -37 -23 -27 -7 4 6 -11 -1 -32 -16 -32 -21 -39 -23 -41
-10 -2 9 -8 13 -14 9 -8 -4 -9 0 -4 12 5 15 4 16 -9 5 -8 -7 -13 -16 -10 -20
3 -5 -4 -6 -15 -3 -13 3 -20 0 -20 -9 0 -7 -9 -14 -20 -15 -13 -1 -18 2 -14
10 4 7 -7 -1 -24 -17 -18 -17 -32 -32 -32 -35 0 -2 11 6 24 18 24 23 24 23 31
2 3 -11 3 -26 -1 -32 -5 -8 -1 -8 14 0 39 21 74 32 67 21 -3 -6 -12 -10 -19
-10 -15 0 -49 -35 -52 -53 -1 -7 -5 -20 -10 -31 -6 -16 -5 -17 15 -7 15 9 20
18 16 31 -3 10 -1 21 5 25 10 6 14 -7 11 -32 -2 -17 42 -12 56 7 7 8 13 11 13
6 0 -5 10 6 23 25 26 39 53 45 50 12 -2 -13 2 -23 8 -23 5 0 8 4 5 9 -3 4 5
13 19 19 18 8 25 8 29 -1 2 -7 5 -4 5 7 1 14 7 17 26 14 14 -3 28 -1 32 5 3 6
1 7 -5 3 -7 -4 -12 -2 -12 3 0 17 18 13 29 -7 6 -11 6 -24 0 -33 -6 -10 -9
-11 -9 -1 0 7 -4 10 -10 7 -15 -9 -12 -24 5 -21 24 3 28 14 30 71 1 30 9 62
16 72 9 11 10 14 2 9 -9 -5 -12 0 -10 15 1 14 -4 23 -16 25 -12 1 -17 -2 -14
-10z m-253 -111 c-7 -8 -18 -15 -24 -15 -6 0 -2 7 8 15 25 19 32 19 16 0z
m180 -13 c0 -5 -7 -9 -15 -9 -8 0 -15 4 -15 9 0 4 7 8 15 8 8 0 15 -4 15 -8z
m-123 -48 c-3 -3 -12 -4 -19 -1 -8 3 -5 6 6 6 11 1 17 -2 13 -5z"/>
<path d="M2495 2430 c-3 -6 1 -7 9 -4 18 7 21 14 7 14 -6 0 -13 -4 -16 -10z"/>
<path d="M2397 2342 c-10 -10 -17 -22 -17 -27 0 -4 9 2 20 15 11 13 20 25 20
27 0 7 -8 2 -23 -15z"/>
<path d="M2415 2319 c-4 -6 -5 -12 -2 -15 2 -3 7 2 10 11 7 17 1 20 -8 4z"/>
<path d="M2480 2220 c-6 -11 -8 -20 -6 -20 3 0 10 9 16 20 6 11 8 20 6 20 -3
0 -10 -9 -16 -20z"/>
<path d="M2870 2190 c-11 -7 -4 -10 28 -10 23 0 42 5 42 10 0 13 -50 13 -70 0z"/>
<path d="M2429 2128 c-11 -24 -17 -35 -15 -25 4 11 0 17 -10 17 -10 0 -14 -6
-10 -15 3 -9 -1 -18 -9 -21 -7 -3 -17 -20 -21 -37 -6 -28 -8 -30 -15 -12 -6
16 -8 13 -6 -12 0 -17 5 -29 9 -27 4 3 8 -8 8 -25 0 -16 -4 -33 -10 -36 -5 -3
-10 -18 -10 -33 0 -22 2 -24 11 -12 7 11 8 4 4 -27 -9 -59 2 -70 30 -30 15 23
21 43 18 61 -3 15 -1 26 6 26 6 0 8 -8 4 -17 -6 -16 -5 -17 11 -3 16 13 20 12
30 -2 7 -10 17 -13 24 -9 17 10 3 44 -14 37 -15 -6 -19 6 -6 18 4 4 7 11 8 14
8 45 20 75 35 83 11 5 19 16 19 24 0 7 12 27 26 44 24 29 29 30 74 25 30 -4
50 -2 54 5 4 6 20 11 36 11 16 0 32 5 36 11 4 8 0 9 -15 4 -31 -10 -161 -13
-155 -3 3 4 -7 3 -23 -3 -19 -7 -29 -7 -31 0 -2 7 -15 3 -31 -9 -29 -20 -43
-18 -34 6 12 33 -10 10 -28 -28z m-19 -69 c0 -11 -4 -17 -10 -14 -5 3 -10 13
-10 21 0 8 5 14 10 14 6 0 10 -9 10 -21z"/>
<path d="M2852 1900 c0 -14 2 -19 5 -12 2 6 2 18 0 25 -3 6 -5 1 -5 -13z"/>
<path d="M2445 1840 c-3 -5 -2 -10 4 -10 5 0 13 5 16 10 3 6 2 10 -4 10 -5 0
-13 -4 -16 -10z"/>
<path d="M2410 1810 c-9 -6 -10 -10 -3 -10 6 0 15 5 18 10 8 12 4 12 -15 0z"/>
<path d="M2745 1770 c3 -5 8 -10 11 -10 2 0 4 5 4 10 0 6 -5 10 -11 10 -5 0
-7 -4 -4 -10z"/>
<path d="M2360 1750 c-8 -5 -12 -12 -9 -15 4 -3 12 1 19 10 14 17 11 19 -10 5z"/>
<path d="M2400 1750 c-8 -5 -12 -12 -9 -15 4 -3 12 1 19 10 14 17 11 19 -10 5z"/>
<path d="M2715 1750 c-3 -5 -1 -10 4 -10 6 0 11 5 11 10 0 6 -2 10 -4 10 -3 0
-8 -4 -11 -10z"/>
<path d="M2790 1719 c0 -5 5 -7 10 -4 6 3 10 8 10 11 0 2 -4 4 -10 4 -5 0 -10
-5 -10 -11z"/>
<path d="M2196 1683 c-6 -14 -5 -15 5 -6 7 7 10 15 7 18 -3 3 -9 -2 -12 -12z"/>
<path d="M2230 1646 c-22 -53 -24 -66 -10 -66 5 0 6 7 3 17 -4 11 -3 14 5 9 7
-4 12 -20 12 -36 0 -16 5 -32 10 -35 6 -4 10 -3 9 2 -3 17 1 33 9 33 10 0 36
-51 33 -64 -1 -5 4 -4 12 3 22 17 28 51 11 58 -8 3 -14 14 -14 24 0 22 -11 24
-29 7 -10 -11 -11 -9 -5 6 5 13 4 17 -3 13 -19 -12 -36 19 -23 43 6 12 9 24 6
27 -3 3 -15 -15 -26 -41z"/>
<path d="M2356 1513 c-9 -9 -7 -51 3 -57 5 -3 11 8 13 25 5 29 -3 45 -16 32z"/>
<path d="M2391 1444 c0 -11 3 -14 6 -6 3 7 2 16 -1 19 -3 4 -6 -2 -5 -13z"/>
<path d="M3320 1450 c0 -5 5 -10 11 -10 5 0 7 5 4 10 -3 6 -8 10 -11 10 -2 0
-4 -4 -4 -10z"/>
<path d="M3350 1434 c0 -10 5 -26 10 -34 8 -11 9 -7 4 15 -8 37 -14 45 -14 19z"/>
<path d="M3212 1426 c-1 -6 -4 -22 -7 -36 -4 -14 -1 -38 4 -54 l11 -28 22 27
c16 20 23 24 29 13 14 -21 11 25 -3 58 -13 28 -53 43 -56 20z"/>
<path d="M3281 1435 c0 -5 6 -32 13 -59 9 -35 15 -44 19 -32 10 25 9 56 -1 56
-5 0 -14 10 -20 23 -6 12 -11 18 -11 12z"/>
<path d="M3078 1415 c-8 -8 8 -65 22 -79 7 -7 10 0 10 22 0 18 -4 32 -9 32 -5
0 -11 7 -13 16 -2 9 -6 13 -10 9z"/>
<path d="M3170 1350 c0 -6 9 -28 20 -50 11 -22 20 -49 20 -62 0 -30 17 -11 24
27 4 20 4 24 -2 11 -7 -17 -10 -15 -25 17 -9 19 -17 42 -17 51 0 9 -4 16 -10
16 -5 0 -10 -5 -10 -10z"/>
<path d="M3150 1325 c0 -13 31 -78 35 -73 8 7 -15 78 -25 78 -6 0 -10 -2 -10
-5z"/>
<path d="M3276 1321 c-9 -13 5 -71 16 -71 6 0 7 7 2 18 -4 9 -8 27 -8 40 -1
24 -2 26 -10 13z"/>
<path d="M3471 1294 c0 -11 3 -14 6 -6 3 7 2 16 -1 19 -3 4 -6 -2 -5 -13z"/>
<path d="M3930 1288 c0 -4 7 -8 15 -8 8 0 15 4 15 8 0 5 -7 9 -15 9 -8 0 -15
-4 -15 -9z"/>
<path d="M2755 1210 c2 -14 4 -25 5 -25 3 0 10 -49 11 -67 0 -10 5 -21 11 -24
13 -8 1 69 -18 111 -11 27 -12 27 -9 5z"/>
<path d="M3277 1168 c3 -29 11 -63 19 -74 13 -22 17 -107 5 -99 -4 2 -13 30
-20 61 -9 38 -16 52 -21 43 -5 -7 -7 -25 -5 -39 13 -76 13 -177 0 -207 -15
-35 -31 -45 -22 -14 4 15 0 18 -20 16 -18 -2 -23 2 -19 12 3 8 6 17 6 19 0 3
5 2 10 -1 14 -9 25 24 12 37 -7 7 -16 -2 -28 -28 -26 -58 -54 -95 -66 -88 -7
4 -6 9 2 14 7 4 -3 7 -23 6 -26 -1 -41 -9 -58 -30 -16 -20 -19 -31 -11 -34 9
-3 9 -9 1 -23 -7 -14 -7 -19 2 -17 6 2 14 -3 16 -9 3 -7 -3 -13 -14 -14 -10 0
-4 -5 14 -10 19 -6 35 -18 39 -31 6 -20 8 -20 19 -5 11 16 13 15 18 -8 3 -19
1 -25 -9 -21 -8 3 -14 -1 -14 -9 0 -8 7 -15 15 -15 8 0 15 -6 15 -14 0 -26 23
-30 40 -8 10 12 20 19 23 16 3 -3 3 3 0 14 -4 17 -1 19 23 14 19 -3 25 -1 20
7 -4 6 -2 11 4 11 6 0 9 4 6 8 -5 8 56 72 69 72 3 0 4 -10 1 -22 l-6 -23 11
23 c7 12 16 22 20 22 4 0 10 13 14 29 4 20 11 28 21 24 17 -6 17 -4 3 55 -12
49 -42 88 -59 77 -18 -11 -11 23 8 37 11 8 17 26 16 48 0 50 -14 101 -25 94
-5 -3 -9 7 -9 21 0 14 -7 39 -15 54 -8 16 -12 31 -9 33 2 3 -2 11 -10 17 -13
11 -15 6 -9 -41z m47 -273 c17 -13 18 -15 3 -15 -9 0 -19 -11 -23 -25 -3 -14
-11 -25 -16 -25 -6 0 -7 8 -3 18 4 9 9 23 12 30 3 6 0 12 -6 12 -6 0 -11 5
-11 10 0 14 22 12 44 -5z m43 -37 c-3 -8 -6 -5 -6 6 -1 11 2 17 5 13 3 -3 4
-12 1 -19z m10 -50 c-3 -8 -6 -5 -6 6 -1 11 2 17 5 13 3 -3 4 -12 1 -19z
m-204 -155 c-7 -2 -19 -2 -25 0 -7 3 -2 5 12 5 14 0 19 -2 13 -5z m-3 -59 c0
-8 -5 -12 -10 -9 -6 4 -8 11 -5 16 9 14 15 11 15 -7z"/>
<path d="M2581 1194 c0 -11 3 -14 6 -6 3 7 2 16 -1 19 -3 4 -6 -2 -5 -13z"/>
<path d="M3201 1194 c0 -11 3 -14 6 -6 3 7 2 16 -1 19 -3 4 -6 -2 -5 -13z"/>
<path d="M2640 1195 c0 -5 9 -23 20 -40 11 -16 20 -23 20 -15 0 17 -39 71 -40
55z"/>
<path d="M2922 1175 c0 -16 2 -22 5 -12 2 9 2 23 0 30 -3 6 -5 -1 -5 -18z"/>
<path d="M2600 1181 c0 -8 27 -41 34 -41 1 0 3 7 3 15 0 8 -4 12 -9 9 -4 -3
-8 2 -8 10 0 9 -4 16 -10 16 -5 0 -10 -4 -10 -9z"/>
<path d="M3130 1166 c0 -9 -3 -16 -7 -16 -8 0 -12 -30 -13 -82 0 -16 -4 -28
-10 -28 -5 0 -10 -18 -10 -40 0 -23 5 -40 11 -40 7 0 9 11 6 30 -4 16 -2 32 3
35 5 3 12 -15 15 -40 4 -25 12 -45 17 -45 5 0 7 -4 4 -9 -6 -9 21 -37 28 -30
2 2 12 22 23 44 16 34 17 44 6 65 -7 14 -18 24 -24 22 -6 -1 -8 2 -4 8 3 5 1
10 -4 10 -8 0 -8 5 -1 18 8 12 7 30 -2 61 -13 44 -38 68 -38 37z"/>
<path d="M3205 1139 c6 -45 15 -49 15 -6 0 21 -4 37 -9 37 -5 0 -8 -14 -6 -31z"/>
<path d="M2690 1120 c0 -5 5 -10 11 -10 5 0 7 5 4 10 -3 6 -8 10 -11 10 -2 0
-4 -4 -4 -10z"/>
<path d="M3030 1096 c0 -20 5 -36 10 -36 6 0 10 13 10 29 0 17 -4 33 -10 36
-6 4 -10 -8 -10 -29z"/>
<path d="M2820 1101 c0 -5 -3 -16 -6 -25 -3 -9 -2 -16 3 -16 5 0 10 11 11 25
1 14 0 25 -3 25 -3 0 -5 -4 -5 -9z"/>
<path d="M3696 1094 c-4 -9 -4 -19 -1 -22 2 -3 7 3 11 12 4 9 4 19 1 22 -2 3
-7 -3 -11 -12z"/>
<path d="M2910 1076 c0 -4 12 -19 26 -34 21 -22 25 -24 22 -8 -3 17 -48 57
-48 42z"/>
<path d="M3215 1070 c3 -5 8 -10 11 -10 2 0 4 5 4 10 0 6 -5 10 -11 10 -5 0
-7 -4 -4 -10z"/>
<path d="M2971 1040 c0 -8 4 -24 9 -35 5 -13 9 -14 9 -5 0 8 -4 24 -9 35 -5
13 -9 14 -9 5z"/>
<path d="M3505 1041 c-3 -5 -1 -12 5 -16 5 -3 10 1 10 9 0 18 -6 21 -15 7z"/>
<path d="M3233 972 c1 -14 5 -18 11 -12 7 7 6 14 -1 21 -9 9 -12 7 -10 -9z"/>
<path d="M3111 934 c0 -11 3 -14 6 -6 3 7 2 16 -1 19 -3 4 -6 -2 -5 -13z"/>
<path d="M3345 930 c3 -5 8 -10 11 -10 2 0 4 5 4 10 0 6 -5 10 -11 10 -5 0 -7
-4 -4 -10z"/>
<path d="M3486 905 c-16 -12 -17 -18 -8 -27 9 -9 15 -9 25 1 10 10 8 11 -7 5
-13 -5 -17 -4 -12 4 4 7 14 12 22 12 8 0 14 5 14 10 0 14 -11 12 -34 -5z"/>
<path d="M3120 889 c0 -11 4 -18 9 -14 6 3 14 -2 19 -11 8 -15 10 -15 16 2 7
19 -5 37 -29 40 -9 1 -15 -6 -15 -17z"/>
<path d="M3225 600 c3 -5 13 -10 21 -10 8 0 14 5 14 10 0 6 -9 10 -21 10 -11
0 -17 -4 -14 -10z"/>
<path d="M3277 489 c4 -13 8 -18 11 -10 2 7 -1 18 -6 23 -8 8 -9 4 -5 -13z"/>
<path d="M3208 479 c27 -10 29 -19 2 -14 -13 2 -20 -2 -20 -11 0 -8 -4 -14
-10 -14 -5 0 -10 -4 -10 -10 0 -5 7 -10 15 -10 8 0 15 6 15 13 0 8 3 8 9 -2
12 -19 41 -23 47 -6 3 8 11 12 18 9 7 -3 21 5 32 17 19 22 19 22 -4 15 -15 -5
-24 -3 -28 7 -3 9 -20 14 -47 14 -34 0 -38 -1 -19 -8z"/>
</g>
</svg>
